<?xml version="1.0" encoding="UTF-8" standalone="no"?>
<!DOCTYPE svg PUBLIC "-//W3C//DTD SVG 1.1//EN" "http://www.w3.org/Graphics/SVG/1.1/DTD/svg11.dtd">
<svg width="100%" height="100%" viewBox="0 0 1700 300" version="1.1" xmlns="http://www.w3.org/2000/svg" xmlns:xlink="http://www.w3.org/1999/xlink" xml:space="preserve" xmlns:serif="http://www.serif.com/" style="fill-rule:evenodd;clip-rule:evenodd;stroke-linejoin:round;stroke-miterlimit:2;">
    <g id="TRINO">
        <g transform="matrix(6.5,0,0,6.5,-170,-175)">
            <g id="Trino-Logo" serif:id="Trino Logo">
                <g>
                    <path d="M69.7,46.667C68.107,37.21 59.904,30 50,30C44,30 38.63,32.654 34.965,36.837C35.528,36.766 36.083,36.667 36.667,36.667C42.872,36.667 48.041,40.926 49.528,46.667L69.7,46.667Z" style="fill:rgb(0,148,255);fill-rule:nonzero;"/>
                    <path d="M34.966,63.161C38.633,67.344 44,70 50,70C59.904,70 68.107,62.786 69.7,53.333L49.527,53.333C48.04,59.072 42.871,63.333 36.666,63.333C36.083,63.333 35.529,63.234 34.966,63.161Z" style="fill:white;fill-rule:nonzero;"/>
                    <circle cx="36.667" cy="50" r="6.667" style="fill:white;"/>
                </g>
            </g>
        </g>
        <g id="MCP-Trino" serif:id="MCP Trino">
            <g transform="matrix(1,0,0,1,-5,57.75)">
                <g transform="matrix(192,0,0,192,327,197.6)">
                    <path d="M0.337,-0.8L0.391,-0.54L0.399,-0.54L0.556,-0.8L0.686,-0.8L0.53,-0L0.39,-0L0.469,-0.407L0.461,-0.407L0.33,-0.19L0.324,-0.19L0.276,-0.406L0.269,-0.406L0.19,-0L0.05,-0L0.206,-0.8L0.337,-0.8Z" style="fill:white;fill-rule:nonzero;"/>
                </g>
                <g transform="matrix(192,0,0,192,438.36,197.6)">
                    <path d="M0.493,-0.325L0.451,-0.11C0.445,-0.077 0.43,-0.051 0.407,-0.031C0.384,-0.01 0.356,-0 0.323,-0L0.16,-0C0.131,-0 0.109,-0.008 0.093,-0.023C0.077,-0.038 0.069,-0.059 0.069,-0.085C0.069,-0.096 0.07,-0.104 0.071,-0.11L0.184,-0.69C0.191,-0.723 0.206,-0.75 0.23,-0.77C0.254,-0.79 0.283,-0.8 0.316,-0.8L0.479,-0.8C0.506,-0.8 0.528,-0.793 0.544,-0.778C0.559,-0.763 0.567,-0.742 0.567,-0.717C0.567,-0.708 0.566,-0.699 0.564,-0.69L0.523,-0.477L0.383,-0.477L0.418,-0.66L0.318,-0.66L0.217,-0.14L0.317,-0.14L0.353,-0.325L0.493,-0.325Z" style="fill:white;fill-rule:nonzero;"/>
                </g>
                <g transform="matrix(192,0,0,192,530.52,197.6)">
                    <path d="M0.479,-0.8C0.506,-0.8 0.528,-0.793 0.544,-0.778C0.559,-0.763 0.567,-0.742 0.567,-0.717C0.567,-0.708 0.566,-0.699 0.564,-0.69L0.508,-0.402C0.502,-0.369 0.487,-0.343 0.464,-0.323C0.441,-0.302 0.413,-0.292 0.38,-0.292L0.247,-0.292L0.19,-0L0.05,-0L0.206,-0.8L0.479,-0.8ZM0.374,-0.432L0.418,-0.66L0.318,-0.66L0.274,-0.432L0.374,-0.432Z" style="fill:white;fill-rule:nonzero;"/>
                </g>
                <g transform="matrix(192,0,0,192,659.16,197.6)">
                    <path d="M0.586,-0.8L0.559,-0.662L0.439,-0.662L0.31,-0L0.17,-0L0.299,-0.662L0.179,-0.662L0.206,-0.8L0.586,-0.8Z" style="fill:white;fill-rule:nonzero;"/>
                </g>
                <g transform="matrix(192,0,0,192,751.32,197.6)">
                    <path d="M0.206,-0.8L0.479,-0.8C0.506,-0.8 0.528,-0.793 0.544,-0.778C0.559,-0.763 0.567,-0.742 0.567,-0.717C0.567,-0.708 0.566,-0.699 0.564,-0.69L0.522,-0.475C0.519,-0.458 0.512,-0.442 0.5,-0.427C0.488,-0.411 0.473,-0.397 0.456,-0.386C0.467,-0.377 0.475,-0.367 0.481,-0.355C0.486,-0.342 0.489,-0.329 0.489,-0.314C0.489,-0.309 0.488,-0.301 0.487,-0.292L0.43,-0L0.29,-0L0.352,-0.317L0.252,-0.317L0.19,-0L0.05,-0L0.206,-0.8ZM0.378,-0.455L0.418,-0.66L0.318,-0.66L0.278,-0.455L0.378,-0.455Z" style="fill:white;fill-rule:nonzero;"/>
                </g>
                <g transform="matrix(192,0,0,192,843.48,197.6)">
                    <path d="M0.19,-0L0.05,-0L0.206,-0.8L0.346,-0.8L0.19,-0Z" style="fill:white;fill-rule:nonzero;"/>
                </g>
                <g transform="matrix(192,0,0,192,889.56,197.6)">
                    <path d="M0.336,-0.8L0.366,-0.43L0.374,-0.43L0.446,-0.8L0.586,-0.8L0.43,-0L0.3,-0L0.269,-0.37L0.262,-0.37L0.19,-0L0.05,-0L0.206,-0.8L0.336,-0.8Z" style="fill:white;fill-rule:nonzero;"/>
                </g>
                <g transform="matrix(192,0,0,192,981.72,197.6)">
                    <path d="M0.184,-0.69C0.191,-0.723 0.206,-0.75 0.23,-0.77C0.254,-0.79 0.283,-0.8 0.316,-0.8L0.479,-0.8C0.506,-0.8 0.528,-0.793 0.544,-0.778C0.559,-0.763 0.567,-0.742 0.567,-0.717C0.567,-0.708 0.566,-0.699 0.564,-0.69L0.451,-0.11C0.445,-0.077 0.43,-0.051 0.407,-0.031C0.384,-0.01 0.356,-0 0.323,-0L0.16,-0C0.131,-0 0.109,-0.008 0.093,-0.023C0.077,-0.038 0.069,-0.059 0.069,-0.085C0.069,-0.096 0.07,-0.104 0.071,-0.11L0.184,-0.69ZM0.317,-0.14L0.418,-0.66L0.318,-0.66L0.217,-0.14L0.317,-0.14Z" style="fill:white;fill-rule:nonzero;"/>
                </g>
            </g>
            <g transform="matrix(1,3.31276e-17,0,1,-1093,-68.75)">
                <g transform="matrix(48,0,0,48,1451,154.4)">
                    <path d="M0.586,-0.8L0.559,-0.662L0.439,-0.662L0.31,-0L0.17,-0L0.299,-0.662L0.179,-0.662L0.206,-0.8L0.586,-0.8Z" style="fill:white;fill-rule:nonzero;"/>
                </g>
                <g transform="matrix(48,0,0,48,1474.04,154.4)">
                    <path d="M0.596,-0.8L0.464,-0.43C0.461,-0.423 0.455,-0.41 0.446,-0.391C0.448,-0.378 0.449,-0.365 0.448,-0.352L0.44,-0L0.3,-0L0.311,-0.323L0.295,-0.323L0.18,-0L0.04,-0L0.167,-0.352C0.17,-0.359 0.176,-0.372 0.185,-0.391C0.183,-0.404 0.182,-0.417 0.183,-0.43L0.196,-0.8L0.336,-0.8L0.321,-0.459L0.337,-0.459L0.456,-0.8L0.596,-0.8Z" style="fill:white;fill-rule:nonzero;"/>
                </g>
                <g transform="matrix(48,0,0,48,1497.08,154.4)">
                    <path d="M0.336,-0.8L0.366,-0.43L0.374,-0.43L0.446,-0.8L0.586,-0.8L0.43,-0L0.3,-0L0.269,-0.37L0.262,-0.37L0.19,-0L0.05,-0L0.206,-0.8L0.336,-0.8Z" style="fill:white;fill-rule:nonzero;"/>
                </g>
                <g transform="matrix(48,0,0,48,1520.12,154.4)">
                    <path d="M0.112,-0.32C0.119,-0.353 0.134,-0.38 0.158,-0.4C0.182,-0.42 0.211,-0.43 0.244,-0.43L0.382,-0.43L0.426,-0.66L0.326,-0.66L0.303,-0.54L0.163,-0.54L0.192,-0.69C0.199,-0.723 0.214,-0.749 0.238,-0.77C0.261,-0.79 0.289,-0.8 0.321,-0.8L0.484,-0.8C0.513,-0.8 0.535,-0.793 0.551,-0.778C0.567,-0.763 0.575,-0.743 0.575,-0.717C0.575,-0.708 0.574,-0.699 0.572,-0.69L0.516,-0.4C0.509,-0.367 0.494,-0.34 0.47,-0.32C0.446,-0.3 0.417,-0.29 0.384,-0.29L0.246,-0.29L0.217,-0.138L0.46,-0.138L0.433,-0L0.05,-0L0.112,-0.32Z" style="fill:white;fill-rule:nonzero;"/>
                </g>
            </g>
        </g>
    </g>
</svg>
